<svg width="40" height="37" viewBox="0 0 40 37" fill="none" xmlns="http://www.w3.org/2000/svg">
<g filter="url(#filter0_d_49_104)">
<path d="M6.66665 32H22.7C23.6618 32.0005 24.6123 31.7927 25.4861 31.3907C26.3598 30.9888 27.1362 30.4023 27.7616 29.6717L36.265 19.7517C36.443 19.5443 36.5674 19.2963 36.627 19.0296C36.6867 18.7629 36.6798 18.4856 36.607 18.2221C36.5342 17.9587 36.3978 17.7171 36.2097 17.5188C36.0216 17.3206 35.7876 17.1716 35.5283 17.085L32.2483 15.9917C31.4556 15.734 30.6115 15.6757 29.7909 15.8219C28.9702 15.9681 28.1983 16.3144 27.5433 16.83L22.235 21.075L21.2066 19.0167C20.6557 17.9071 19.8051 16.974 18.7512 16.3231C17.6973 15.6721 16.4821 15.3292 15.2433 15.3333H6.66665C4.82831 15.3333 3.33331 16.8283 3.33331 18.6667V28.6667C3.33331 30.505 4.82831 32 6.66665 32ZM6.66665 18.6667H15.2433C16.515 18.6667 17.6566 19.3717 18.225 20.5083L18.97 22H11.6666V25.3333H21.69C21.9464 25.33 22.1986 25.2672 22.4266 25.15L22.4316 25.1483L22.4383 25.145H22.4433L22.4466 25.1433H22.4533L22.455 25.1417C22.47 25.1467 22.46 25.14 22.46 25.14C22.4766 25.14 22.4633 25.1383 22.4633 25.1383H22.465L22.4683 25.1367L22.4733 25.135L22.4766 25.1333L22.48 25.1317L22.485 25.13L22.4883 25.1283C22.4933 25.1283 22.49 25.1267 22.4916 25.1267L22.4966 25.1233L22.5 25.1217L22.5033 25.12L22.5083 25.1183L22.5116 25.1167H22.5133L22.5166 25.115H22.5183L22.5216 25.1133L22.525 25.1117C22.54 25.11 22.53 25.11 22.53 25.11L22.5333 25.1083C22.5975 25.0696 22.6588 25.0261 22.7166 24.9783L29.6266 19.45C30.0633 19.1033 30.665 18.995 31.1933 19.1717L32.1217 19.4817L25.2333 27.52C24.9165 27.8798 24.5267 28.1681 24.09 28.3658C23.6532 28.5635 23.1794 28.666 22.7 28.6667H6.66665V18.6667ZM26.6666 0.333344H26.6383C26.3666 0.336677 24.9616 0.398344 23.3333 1.50834C21.7483 0.428344 20.3766 0.341677 20.0533 0.33501L20.0033 0.333344H19.9966C18.6616 0.333344 17.405 0.855011 16.465 1.79668C15.5216 2.74168 15 3.99668 15 5.33334C15 6.67001 15.5216 7.92501 16.435 8.84001L22.125 14.8167C22.2815 14.9792 22.4693 15.1084 22.677 15.1967C22.8847 15.2849 23.108 15.3303 23.3337 15.3301C23.5593 15.33 23.7826 15.2843 23.9902 15.1958C24.1978 15.1072 24.3853 14.9777 24.5416 14.815L30.2017 8.86834C31.1467 7.92501 31.6666 6.67001 31.6666 5.33334C31.6666 3.99668 31.145 2.74168 30.2033 1.79834C29.7405 1.33259 29.19 0.963275 28.5834 0.711803C27.9769 0.46033 27.3266 0.331694 26.67 0.333344H26.6666ZM28.3333 5.33334C28.3333 5.77834 28.16 6.19668 27.815 6.54168L23.3333 11.25L18.8216 6.51168C18.5066 6.19668 18.3333 5.77834 18.3333 5.33334C18.3333 4.88834 18.5066 4.47001 18.8233 4.15334C19.1247 3.84677 19.5351 3.67183 19.965 3.66668C20.0066 3.66834 20.8016 3.72001 21.7433 4.47501C21.8783 4.58334 22.015 4.70668 22.155 4.84501L23.3333 6.02334L24.5116 4.84501C24.6516 4.70668 24.7883 4.58334 24.9233 4.47501C25.805 3.76668 26.55 3.67834 26.6766 3.66834C26.8939 3.6683 27.109 3.71129 27.3095 3.79482C27.51 3.87835 27.692 4.00077 27.845 4.15501C28.16 4.47001 28.3333 4.88834 28.3333 5.33334Z" fill="black"/>
</g>
<defs>
<filter id="filter0_d_49_104" x="-0.666687" y="0.333328" width="41.3339" height="39.6667" filterUnits="userSpaceOnUse" color-interpolation-filters="sRGB">
<feFlood flood-opacity="0" result="BackgroundImageFix"/>
<feColorMatrix in="SourceAlpha" type="matrix" values="0 0 0 0 0 0 0 0 0 0 0 0 0 0 0 0 0 0 127 0" result="hardAlpha"/>
<feOffset dy="4"/>
<feGaussianBlur stdDeviation="2"/>
<feComposite in2="hardAlpha" operator="out"/>
<feColorMatrix type="matrix" values="0 0 0 0 0 0 0 0 0 0 0 0 0 0 0 0 0 0 0.25 0"/>
<feBlend mode="normal" in2="BackgroundImageFix" result="effect1_dropShadow_49_104"/>
<feBlend mode="normal" in="SourceGraphic" in2="effect1_dropShadow_49_104" result="shape"/>
</filter>
</defs>
</svg>
