<svg width="30" height="30" viewBox="0 0 30 30" fill="none" xmlns="http://www.w3.org/2000/svg">
<path d="M15 0C11.0366 0.0478172 7.24902 1.64352 4.44627 4.44627C1.64352 7.24902 0.0478172 11.0366 0 15C0.0478172 18.9634 1.64352 22.751 4.44627 25.5537C7.24902 28.3565 11.0366 29.9522 15 30C18.9634 29.9522 22.751 28.3565 25.5537 25.5537C28.3565 22.751 29.9522 18.9634 30 15C29.9522 11.0366 28.3565 7.24902 25.5537 4.44627C22.751 1.64352 18.9634 0.0478172 15 0ZM23.5714 16.0714H16.0714V23.5714H13.9286V16.0714H6.42857V13.9286H13.9286V6.42857H16.0714V13.9286H23.5714V16.0714Z" fill="black"/>
</svg>
